# xmcd
#
# Track frame offsets:
#	150
#	11844
#	22247
#	39278
#	49702
#	62031
#	75784
#	85158
#	93272
#	106739
#	119242
#	133009
#	144493
#	157300
#	174145
#	186856
#	198785
#	212871
#	223528
#	236930
#	248759
#	260496
#	270977
#
# Disc length: 3782 seconds
#
# Revision: 2
# Processed by: cddbd v1.5.2PL0 Copyright (c) Steve Scherf et al.
# Submitted via: EasyCDDAExtractor 12.0.4.1
#
DISCID=410ec417
DTITLE=Johnny Cash - King of World Music
DYEAR=1988
DGENRE=Country
TTITLE0=I Walk The Line
TTITLE1=Big River
TTITLE2=(Ghost) Riders In The Sky
TTITLE3=Kate
TTITLE4=Understand Your Man
TTITLE5=Don`t Take Your Guns To Town
TTITLE6=I Got Strites
TTITLE7=Five Feet High And Rising
TTITLE8=Tennessee Flat - Top Box
TTITLE9=Jackson
TTITLE10=It Ain`t Me Babe
TTITLE11=A Thing Called Love
TTITLE12=Wanted Man
TTITLE13=A Boy Named Sue
TTITLE14=The One On The Right Is On The Left
TTITLE15=Ring Of Fire
TTITLE16=Orance Blossom Special
TTITLE17=Daddy Sang Bass
TTITLE18=If I Were A Carpenter
TTITLE19=What Is Truth
TTITLE20=Flesh And Blood
TTITLE21=Bonanza
TTITLE22=Man In Black
EXTD=
EXTT0=
EXTT1=
EXTT2=
EXTT3=
EXTT4=
EXTT5=
EXTT6=
EXTT7=
EXTT8=
EXTT9=
EXTT10=
EXTT11=
EXTT12=
EXTT13=
EXTT14=
EXTT15=
EXTT16=
EXTT17=
EXTT18=
EXTT19=
EXTT20=
EXTT21=
EXTT22=
PLAYORDER=
